<?xml version="1.0" encoding="UTF-8"?>
<!DOCTYPE svg PUBLIC "-//W3C//DTD SVG 1.1//EN" "http://www.w3.org/Graphics/SVG/1.1/DTD/svg11.dtd">
<!-- Creator: CorelDRAW X7 -->
<svg xmlns="http://www.w3.org/2000/svg" xml:space="preserve" width="149.768mm" height="41.9571mm" version="1.1" style="shape-rendering:geometricPrecision; text-rendering:geometricPrecision; image-rendering:optimizeQuality; fill-rule:evenodd; clip-rule:evenodd"
viewBox="0 0 20878 5849"
 xmlns:xlink="http://www.w3.org/1999/xlink">
 <defs>
  <style type="text/css">
   <![CDATA[
    .fil0 {fill:#F37435;fill-rule:nonzero}
   ]]>
  </style>
 </defs>
 <g id="Camada_x0020_1">
  <metadata id="CorelCorpID_0Corel-Layer"/>
  <g id="_660186896">
   <path class="fil0" d="M0 3831l389 -2597 750 0 -50 359c147,-164 262,-273 347,-327 84,-55 171,-83 258,-83 70,0 144,14 222,43 79,29 161,73 249,131l-364 791c-70,-75 -133,-130 -191,-165 -59,-36 -114,-54 -168,-54 -74,0 -151,30 -228,89 -77,60 -155,148 -232,265l-229 1548 -753 0z"/>
   <path id="1" class="fil0" d="M4330 3676c-140,69 -291,122 -456,158 -164,35 -334,53 -512,53 -389,0 -697,-113 -924,-338 -228,-226 -342,-533 -342,-922 0,-431 132,-779 395,-1045 264,-266 610,-399 1041,-399 350,0 619,100 809,301 190,201 285,487 285,856 0,46 -1,92 -4,141 -3,49 -7,96 -13,144l-1722 3c0,9 -1,22 -3,41 -1,18 -2,30 -2,35 0,186 55,328 165,426 110,97 271,146 481,146 118,0 254,-23 406,-68 153,-45 330,-116 535,-213l-139 681zm-1336 -1500l880 0 0 -52c0,-135 -31,-238 -94,-308 -63,-70 -154,-105 -275,-105 -124,0 -229,39 -314,117 -86,79 -151,195 -197,348z"/>
   <path id="2" class="fil0" d="M6442 3270l206 -1419c-19,-2 -40,-4 -62,-5 -23,-1 -56,-1 -100,-1 -294,0 -524,72 -688,217 -166,144 -248,343 -248,598 0,198 67,351 201,457 135,105 327,159 579,159 13,0 32,-1 56,-3 24,-2 44,-3 56,-3zm679 523c-146,29 -283,52 -410,67 -127,14 -243,21 -349,21 -259,0 -471,-17 -634,-50 -164,-34 -304,-89 -421,-166 -175,-116 -309,-263 -403,-438 -92,-176 -139,-370 -139,-583 0,-439 153,-791 460,-1057 307,-265 716,-398 1227,-398 48,0 97,2 149,6 50,3 101,7 150,11l178 -1206 758 0 -566 3793z"/>
   <path id="3" class="fil0" d="M9809 3676c-139,69 -291,122 -455,158 -165,35 -335,53 -513,53 -389,0 -697,-113 -924,-338 -227,-226 -341,-533 -341,-922 0,-431 131,-779 394,-1045 264,-266 610,-399 1041,-399 350,0 619,100 809,301 190,201 285,487 285,856 0,46 -1,92 -4,141 -2,49 -7,96 -13,144l-1722 3c0,9 -1,22 -2,41 -2,18 -3,30 -3,35 0,186 55,328 165,426 111,97 271,146 481,146 118,0 254,-23 406,-68 153,-45 330,-116 535,-213l-139 681zm-1336 -1500l881 0 0 -52c0,-135 -32,-238 -95,-308 -62,-70 -154,-105 -275,-105 -124,0 -229,39 -314,117 -86,79 -151,195 -197,348z"/>
   <path id="4" class="fil0" d="M11123 3831l386 -2597 752 0 -44 313c127,-122 260,-213 403,-274 142,-60 298,-90 466,-90 161,0 294,36 398,106 103,70 182,181 239,332 183,-146 355,-255 515,-328 161,-73 315,-110 463,-110 232,0 411,64 539,191 127,126 190,307 190,540 0,62 -4,142 -15,239 -10,96 -26,220 -47,372l-196 1306 -764 0 251 -1648c2,-4 3,-10 3,-17 5,-54 9,-94 11,-118 0,-100 -21,-175 -64,-224 -43,-50 -108,-74 -196,-74 -91,0 -193,33 -305,97 -113,65 -221,155 -328,272l-251 1712 -758 0 251 -1648c2,-4 3,-10 3,-17 6,-54 9,-95 11,-123 0,-97 -21,-170 -64,-219 -43,-50 -107,-74 -190,-74 -103,0 -209,34 -323,100 -112,66 -222,163 -331,289l-253 1692 -752 0z"/>
   <path id="5" class="fil0" d="M17320 3087l179 -1230c-17,-2 -36,-4 -56,-5 -22,-1 -53,-1 -95,-1 -304,0 -543,88 -721,263 -176,175 -265,411 -265,707 0,146 35,261 103,345 68,84 161,126 277,126 94,0 188,-16 284,-50 96,-34 194,-86 294,-155zm-112 744l28 -202c-126,88 -248,151 -364,192 -116,40 -234,60 -354,60 -277,0 -495,-96 -658,-289 -163,-192 -244,-453 -244,-782 0,-231 44,-446 133,-646 88,-200 216,-370 382,-511 179,-152 389,-259 629,-323 240,-64 625,-96 1155,-96l427 0 -381 2597 -753 0z"/>
   <polygon id="6" class="fil0" points="18387,3831 18958,0 19700,0 19129,3831 "/>
   <polygon id="7" class="fil0" points="19566,3831 20137,0 20878,0 20307,3831 "/>
   <path class="fil0" d="M11663 5805l224 -1511 305 0 -87 575c49,-34 96,-60 142,-76 45,-17 90,-25 135,-25 112,0 202,42 271,128 70,85 105,197 105,334 0,200 -63,353 -187,460 -125,106 -305,159 -540,159 -60,0 -120,-4 -181,-11 -61,-7 -124,-18 -187,-33zm329 -201c6,0 14,1 24,2 10,0 17,1 21,1 132,0 233,-31 305,-93 72,-62 108,-150 108,-261 0,-72 -15,-128 -45,-169 -31,-40 -72,-61 -123,-61 -39,0 -75,10 -111,30 -36,20 -71,50 -106,91l-73 460z"/>
   <path id="1" class="fil0" d="M13700 5764c-56,28 -117,49 -182,64 -66,14 -134,21 -205,21 -156,0 -279,-45 -370,-135 -91,-90 -137,-214 -137,-369 0,-172 53,-312 158,-418 106,-106 244,-159 417,-159 140,0 247,40 323,120 76,80 114,194 114,342 0,18 0,37 -1,57 -1,19 -3,38 -6,57l-688 1c0,4 -1,9 -1,17 -1,7 -2,12 -2,14 0,74 23,131 67,170 44,39 108,58 192,58 47,0 102,-9 162,-26 61,-18 132,-47 214,-86l-55 272zm-535 -599l353 0 0 -21c0,-54 -13,-95 -38,-123 -25,-28 -62,-43 -110,-43 -50,0 -92,16 -126,48 -34,31 -60,77 -79,139z"/>
   <polygon id="2" class="fil0" points="13860,5827 14089,4294 14385,4294 14157,5827 "/>
   <polygon id="3" class="fil0" points="14554,5827 14289,4788 14594,4788 14725,5346 15007,4788 15332,4788 14767,5827 "/>
   <path id="4" class="fil0" d="M16100 5764c-56,28 -116,49 -182,64 -66,14 -134,21 -205,21 -156,0 -279,-45 -370,-135 -91,-90 -136,-214 -136,-369 0,-172 52,-312 157,-418 106,-106 244,-159 417,-159 140,0 247,40 323,120 76,80 114,194 114,342 0,18 0,37 -1,57 -1,19 -3,38 -5,57l-689 1c0,4 -1,9 -1,17 -1,7 -1,12 -1,14 0,74 22,131 66,170 44,39 108,58 192,58 47,0 102,-9 163,-26 61,-18 132,-47 214,-86l-56 272zm-535 -599l353 0 0 -21c0,-54 -13,-95 -38,-123 -25,-28 -62,-43 -110,-43 -50,0 -92,16 -126,48 -34,31 -60,77 -79,139z"/>
   <path id="5" class="fil0" d="M16945 5602l82 -567c-7,-1 -16,-2 -25,-2 -9,-1 -22,-1 -40,-1 -117,0 -209,29 -275,87 -66,58 -99,137 -99,239 0,79 27,141 80,183 54,42 131,63 232,63 5,0 13,0 22,-1 10,0 18,-1 23,-1zm271 210c-58,11 -113,20 -164,26 -50,6 -97,9 -139,9 -104,0 -189,-7 -254,-20 -65,-14 -121,-36 -168,-67 -70,-46 -124,-105 -161,-175 -37,-70 -56,-148 -56,-233 0,-176 61,-317 184,-423 123,-106 286,-159 491,-159 19,0 39,1 59,2 20,2 41,3 61,5l71 -483 303 0 -227 1518z"/>
   <path id="6" class="fil0" d="M18291 5764c-55,28 -116,49 -182,64 -65,14 -134,21 -205,21 -155,0 -279,-45 -369,-135 -91,-90 -137,-214 -137,-369 0,-172 53,-312 158,-418 105,-106 244,-159 416,-159 140,0 248,40 324,120 76,80 114,194 114,342 0,18 0,37 -2,57 -1,19 -3,38 -5,57l-689 1c0,4 0,9 -1,17 0,7 -1,12 -1,14 0,74 22,131 66,170 45,39 109,58 193,58 47,0 101,-9 162,-26 61,-18 132,-47 214,-86l-56 272zm-534 -599l352 0 0 -21c0,-54 -12,-95 -37,-123 -25,-28 -62,-43 -110,-43 -50,0 -92,16 -126,48 -34,31 -61,77 -79,139z"/>
   <path id="7" class="fil0" d="M18457 5827l155 -1039 300 0 -20 143c59,-65 105,-109 139,-130 34,-23 68,-33 103,-33 28,0 58,5 89,17 32,11 64,29 100,52l-146 316c-28,-29 -53,-51 -77,-66 -23,-14 -45,-21 -66,-21 -30,0 -61,12 -92,36 -31,23 -62,59 -92,105l-92 620 -301 0z"/>
   <path id="8" class="fil0" d="M20188 5764c-55,28 -116,49 -182,64 -65,14 -134,21 -205,21 -155,0 -279,-45 -369,-135 -91,-90 -137,-214 -137,-369 0,-172 53,-312 158,-418 105,-106 244,-159 416,-159 140,0 248,40 324,120 76,80 114,194 114,342 0,18 0,37 -2,57 -1,19 -3,38 -5,57l-689 1c0,4 0,9 -1,17 0,7 -1,12 -1,14 0,74 22,131 66,170 45,39 109,58 193,58 47,0 101,-9 162,-26 61,-18 132,-47 214,-86l-56 272zm-534 -599l352 0 0 -21c0,-54 -12,-95 -37,-123 -25,-28 -62,-43 -110,-43 -50,0 -92,16 -126,48 -34,31 -61,77 -79,139z"/>
  </g>
 </g>
</svg>
