<?xml version="1.0" encoding="UTF-8"?>
<!DOCTYPE svg PUBLIC "-//W3C//DTD SVG 1.1//EN" "http://www.w3.org/Graphics/SVG/1.1/DTD/svg11.dtd">
<!-- Creator: CorelDRAW X7 -->
<svg xmlns="http://www.w3.org/2000/svg" xml:space="preserve" width="149.768mm" height="41.9571mm" version="1.1" style="shape-rendering:geometricPrecision; text-rendering:geometricPrecision; image-rendering:optimizeQuality; fill-rule:evenodd; clip-rule:evenodd"
viewBox="0 0 25257 7076"
 xmlns:xlink="http://www.w3.org/1999/xlink">
 <defs>
  <style type="text/css">
   <![CDATA[
    .fil0 {fill:#FEFEFE;fill-rule:nonzero}
   ]]>
  </style>
 </defs>
 <g id="Camada_x0020_1">
  <metadata id="CorelCorpID_0Corel-Layer"/>
  <g id="_666774448">
   <path class="fil0" d="M0 4634l470 -3141 907 0 -60 434c178,-198 317,-330 420,-396 102,-67 207,-99 312,-99 85,0 174,17 269,52 95,35 195,88 301,158l-440 957c-85,-91 -162,-157 -232,-200 -71,-43 -138,-65 -202,-65 -91,0 -183,36 -276,108 -94,72 -188,178 -280,320l-279 1872 -910 0z"/>
   <path id="1" class="fil0" d="M5238 4447c-169,83 -352,148 -551,191 -199,43 -405,64 -620,64 -470,0 -843,-137 -1118,-409 -275,-273 -413,-645 -413,-1115 0,-522 160,-942 477,-1265 319,-321 739,-481 1260,-481 423,0 749,121 978,364 230,243 345,588 345,1035 0,55 -1,112 -4,170 -4,59 -9,117 -16,174l-2083 4c0,11 -1,27 -4,50 -2,21 -3,36 -3,43 0,225 67,395 200,514 134,118 328,177 581,177 144,0 308,-28 492,-82 185,-54 400,-140 647,-258l-168 824zm-1616 -1814l1065 0 0 -64c0,-163 -38,-287 -114,-372 -76,-85 -187,-128 -333,-128 -150,0 -277,48 -380,143 -104,95 -183,235 -238,421z"/>
   <path id="2" class="fil0" d="M7793 3956l249 -1717c-23,-2 -48,-4 -75,-6 -28,-1 -68,-1 -121,-1 -355,0 -633,87 -832,263 -200,174 -300,415 -300,722 0,240 82,426 243,553 163,128 396,193 700,193 16,0 39,-2 68,-4 30,-2 53,-3 68,-3zm821 633c-176,35 -341,62 -495,80 -154,17 -294,26 -423,26 -313,0 -569,-20 -767,-61 -198,-40 -367,-107 -509,-200 -211,-141 -374,-319 -487,-530 -112,-213 -169,-448 -169,-706 0,-530 186,-957 557,-1278 372,-321 866,-482 1485,-482 57,0 117,3 179,7 61,5 123,9 182,14l215 -1459 917 0 -685 4589z"/>
   <path id="3" class="fil0" d="M11866 4447c-168,83 -352,148 -551,191 -199,43 -404,64 -619,64 -471,0 -844,-137 -1119,-409 -275,-273 -413,-645 -413,-1115 0,-522 160,-942 478,-1265 319,-321 738,-481 1259,-481 423,0 749,121 979,364 229,243 345,588 345,1035 0,55 -2,112 -5,170 -3,59 -9,117 -16,174l-2083 4c0,11 -1,27 -3,50 -2,21 -4,36 -4,43 0,225 67,395 201,514 133,118 328,177 581,177 143,0 307,-28 492,-82 184,-54 399,-140 647,-258l-169 824zm-1616 -1814l1065 0 0 -64c0,-163 -38,-287 -114,-372 -76,-85 -186,-128 -332,-128 -151,0 -277,48 -380,143 -104,95 -183,235 -239,421z"/>
   <path id="4" class="fil0" d="M13456 4634l467 -3141 910 0 -53 379c152,-149 314,-258 487,-332 172,-72 360,-108 563,-108 196,0 357,43 482,127 125,85 221,219 290,402 220,-176 428,-309 623,-397 194,-88 381,-132 560,-132 280,0 497,77 651,230 154,153 231,371 231,654 0,75 -6,171 -18,288 -13,117 -32,267 -58,450l-237 1580 -925 0 305 -1993c2,-5 3,-12 3,-21 7,-65 11,-113 14,-142 0,-121 -26,-212 -78,-272 -52,-60 -130,-89 -237,-89 -111,0 -234,40 -370,118 -135,78 -266,187 -395,329l-305 2070 -917 0 304 -1993c3,-5 4,-12 4,-21 7,-65 11,-115 13,-149 0,-117 -26,-205 -78,-265 -52,-60 -129,-89 -229,-89 -125,0 -253,41 -390,121 -136,80 -269,197 -402,349l-305 2047 -910 0z"/>
   <path id="5" class="fil0" d="M20953 3734l216 -1488c-21,-2 -43,-5 -68,-6 -26,-1 -63,-1 -114,-1 -368,0 -657,106 -872,318 -214,212 -321,497 -321,856 0,176 42,315 124,417 83,102 195,153 336,153 113,0 227,-20 343,-61 116,-41 235,-104 356,-188zm-136 900l34 -244c-153,106 -300,183 -440,232 -140,48 -284,73 -428,73 -335,0 -600,-116 -797,-349 -196,-233 -295,-549 -295,-947 0,-279 53,-539 161,-781 107,-242 261,-448 462,-619 216,-183 471,-313 761,-390 291,-78 756,-116 1397,-116l517 0 -460 3141 -912 0z"/>
   <polygon id="6" class="fil0" points="22244,4634 22935,0 23832,0 23141,4634 "/>
   <polygon id="7" class="fil0" points="23669,4634 24360,0 25257,0 24566,4634 "/>
   <path class="fil0" d="M14109 7023l271 -1828 369 0 -105 696c59,-42 116,-73 171,-93 55,-20 110,-30 165,-30 134,0 243,51 327,155 84,103 126,238 126,404 0,242 -75,427 -226,556 -151,129 -368,193 -653,193 -72,0 -145,-5 -219,-13 -74,-9 -149,-23 -226,-40zm399 -243c7,0 16,0 28,1 12,1 21,2 26,2 159,0 282,-38 369,-113 87,-75 130,-180 130,-316 0,-87 -18,-154 -55,-203 -36,-50 -86,-74 -149,-74 -46,0 -90,12 -133,36 -44,24 -86,60 -129,110l-87 557z"/>
   <path id="1" class="fil0" d="M16573 6974c-67,33 -141,59 -220,76 -80,17 -162,26 -248,26 -188,0 -338,-55 -448,-164 -109,-109 -165,-258 -165,-446 0,-209 64,-377 191,-506 128,-128 296,-192 504,-192 169,0 300,48 391,145 92,97 138,235 138,414 0,22 0,45 -1,68 -2,24 -4,47 -7,70l-833 1c0,5 0,11 -1,20 -1,9 -2,15 -2,18 0,90 27,158 80,205 54,47 132,71 233,71 57,0 123,-11 197,-33 73,-21 159,-56 258,-103l-67 330zm-646 -726l426 0 0 -25c0,-66 -16,-115 -46,-149 -30,-34 -75,-51 -133,-51 -60,0 -111,19 -152,57 -42,38 -73,94 -95,168z"/>
   <polygon id="2" class="fil0" points="16767,7049 17044,5195 17402,5195 17126,7049 "/>
   <polygon id="3" class="fil0" points="17606,7049 17286,5792 17655,5792 17813,6468 18155,5792 18548,5792 17865,7049 "/>
   <path id="4" class="fil0" d="M19477 6974c-68,33 -141,59 -221,76 -79,17 -162,26 -248,26 -188,0 -337,-55 -447,-164 -110,-109 -165,-258 -165,-446 0,-209 64,-377 191,-506 127,-128 295,-192 504,-192 169,0 299,48 391,145 92,97 138,235 138,414 0,22 0,45 -2,68 -1,24 -3,47 -6,70l-833 1c0,5 -1,11 -2,20 -1,9 -1,15 -1,18 0,90 27,158 80,205 53,47 131,71 232,71 58,0 124,-11 197,-33 74,-21 160,-56 259,-103l-67 330zm-647 -726l426 0 0 -25c0,-66 -15,-115 -45,-149 -31,-34 -75,-51 -133,-51 -61,0 -111,19 -152,57 -42,38 -74,94 -96,168z"/>
   <path id="5" class="fil0" d="M20499 6777l99 -686c-9,-1 -19,-2 -30,-3 -11,0 -27,0 -48,0 -142,0 -253,35 -333,105 -80,69 -120,166 -120,289 0,96 33,170 97,221 66,51 159,77 280,77 7,0 16,-1 28,-1 11,-1 21,-2 27,-2zm328 254c-70,14 -136,24 -198,32 -62,6 -118,10 -169,10 -125,0 -228,-8 -307,-24 -79,-17 -147,-43 -203,-80 -85,-57 -150,-128 -195,-213 -45,-85 -68,-179 -68,-282 0,-212 74,-383 223,-511 149,-128 346,-193 594,-193 23,0 47,1 72,3 24,2 48,4 72,5l86 -583 367 0 -274 1836z"/>
   <path id="6" class="fil0" d="M22128 6974c-68,33 -141,59 -220,76 -80,17 -162,26 -248,26 -188,0 -338,-55 -448,-164 -110,-109 -165,-258 -165,-446 0,-209 64,-377 191,-506 128,-128 296,-192 504,-192 169,0 300,48 391,145 92,97 138,235 138,414 0,22 0,45 -2,68 -1,24 -3,47 -6,70l-833 1c0,5 -1,11 -1,20 -1,9 -2,15 -2,18 0,90 27,158 80,205 54,47 131,71 233,71 57,0 123,-11 197,-33 73,-21 159,-56 258,-103l-67 330zm-647 -726l427 0 0 -25c0,-66 -16,-115 -46,-149 -30,-34 -75,-51 -133,-51 -60,0 -111,19 -152,57 -42,38 -73,94 -96,168z"/>
   <path id="7" class="fil0" d="M22328 7049l188 -1257 363 0 -24 174c71,-79 126,-132 167,-159 41,-26 83,-39 125,-39 34,0 70,6 108,20 38,14 78,36 120,64l-176 382c-34,-36 -64,-62 -92,-80 -29,-17 -56,-25 -81,-25 -37,0 -74,14 -111,43 -37,28 -75,71 -112,128l-111 749 -364 0z"/>
   <path id="8" class="fil0" d="M24423 6974c-68,33 -141,59 -221,76 -79,17 -161,26 -247,26 -189,0 -338,-55 -448,-164 -110,-109 -165,-258 -165,-446 0,-209 64,-377 191,-506 128,-128 295,-192 504,-192 169,0 299,48 391,145 92,97 138,235 138,414 0,22 0,45 -2,68 -1,24 -3,47 -6,70l-833 1c0,5 -1,11 -2,20 0,9 -1,15 -1,18 0,90 27,158 80,205 54,47 131,71 233,71 57,0 123,-11 196,-33 74,-21 160,-56 259,-103l-67 330zm-647 -726l426 0 0 -25c0,-66 -15,-115 -45,-149 -31,-34 -75,-51 -133,-51 -60,0 -111,19 -152,57 -42,38 -73,94 -96,168z"/>
  </g>
 </g>
</svg>
